<svg xmlns="http://www.w3.org/2000/svg" width="512" height="512" viewBox="0 0 512 512">
  <rect width="512" height="512" rx="104" fill="#4e0e15"/>
  <rect width="512" height="512" rx="104" fill="url(#g)"/>
  <defs>
    <linearGradient id="g" x1="0" y1="0" x2="0" y2="1">
      <stop offset="0" stop-color="#ffffff" stop-opacity="0.06"/>
      <stop offset="1" stop-color="#000000" stop-opacity="0.18"/>
    </linearGradient>
  </defs>
  <!-- leaf + stem -->
  <path d="M256 150c18-30 54-40 84-30-10 30-40 50-72 46z" fill="#7bae5b"/>
  <rect x="250" y="150" width="12" height="40" rx="6" fill="#8a5a30"/>
  <!-- grape bunch -->
  <g fill="#c79be8" stroke="#9a63c9" stroke-width="4">
    <circle cx="204" cy="208" r="30"/>
    <circle cx="256" cy="200" r="30"/>
    <circle cx="308" cy="208" r="30"/>
    <circle cx="178" cy="256" r="30"/>
    <circle cx="230" cy="250" r="30"/>
    <circle cx="282" cy="250" r="30"/>
    <circle cx="334" cy="256" r="30"/>
    <circle cx="204" cy="300" r="30"/>
    <circle cx="256" cy="296" r="30"/>
    <circle cx="308" cy="300" r="30"/>
    <circle cx="230" cy="344" r="30"/>
    <circle cx="282" cy="344" r="30"/>
    <circle cx="256" cy="388" r="30"/>
  </g>
</svg>
